#!OML:ASF I:\salsa\salsa 7_09\Patient 1\Session 1\dancermale.ASF
:FULLY-SPECIFIED
:DEGREES
1085
root 11.0566 17.1759 5.96451 193.888 238.137 530.857
lowerback -4.97794 2.72719 1.16826
upperback 1.39647 3.55163 0.236066
thorax 4.28773 1.78966 -0.102813
lowerneck -5.95918 0.647575 -1.60349
upperneck 40.1343 1.55351 -4.04344
head 15.0126 -0.521819 -1.32071
rclavicle -6.86801e-014 1.11319e-014
rhumerus -33.1385 -6.70451 -85.5552
rradius 92.9793
rwrist 7.10088
rhand -42.4297 -8.54043
rfingers 7.12502
rthumb -15.3091 -37.9538
lclavicle -6.86801e-014 1.11319e-014
lhumerus -55.996 -10.2773 91.4189
lradius 64.7871
lwrist -0.727438
lhand -3.24927 60.1945
lfingers 7.12502
lthumb 22.4747 448.907
rfemur -19.5435 2.60923 25.0315
rtibia 27.0124
rfoot -16.2372 -18.6487
rtoes 14.7428
lfemur -21.2629 6.81328 -3.88418
ltibia 60.974
lfoot 2.16883 11.0993
ltoes 3.50166
1086
root 10.9066 17.1377 5.911 193.799 237.885 530.302
lowerback -4.72033 2.87461 1.75358
upperback 1.59176 3.71448 0.195516
thorax 4.38834 1.88774 -0.462538
lowerneck -6.24631 0.835089 -1.45063
upperneck 40.1145 1.97615 -4.38721
head 15.0878 -0.357426 -1.43541
rclavicle -4.14466e-014 1.19271e-015
rhumerus -31.2281 -8.47447 -85.6469
rradius 92.5782
rwrist 4.00853
rhand -44.9325 -7.95606
rfingers 7.12502
rthumb -17.7187 -37.1688
lclavicle -4.14466e-014 1.19271e-015
lhumerus -55.5307 -9.66557 91.15
lradius 64.2667
lwrist -1.30538
lhand -3.57198 60.1713
lfingers 7.12502
lthumb 22.1649 448.921
rfemur -18.8652 2.00464 26.0138
rtibia 27.597
rfoot -16.7072 -18.7303
rtoes 13.291
lfemur -23.6009 6.16467 -3.07868
ltibia 65.2518
lfoot 5.65383 10.0934
ltoes 4.58682
1087
root 10.7627 17.0915 5.86425 193.934 237.493 529.663
lowerback -4.73148 3.02947 2.45611
upperback 1.84491 3.87049 0.216115
thorax 4.70926 1.98753 -0.807507
lowerneck -6.46774 0.988416 -1.34976
upperneck 39.957 2.32947 -4.65421
head 15.0769 -0.213838 -1.51113
rclavicle 1.08189e-013 -1.70955e-014
rhumerus -29.2414 -10.0216 -85.4983
rradius 92.3359
rwrist 0.97225
rhand -46.3139 -9.2258
rfingers 7.12502
rthumb -19.0476 -38.3131
lclavicle 1.08189e-013 -1.70955e-014
lhumerus -54.9125 -9.06228 91.0484
lradius 63.6753
lwrist -2.24301
lhand -4.04403 60.1978
lfingers 7.12502
lthumb 21.7117 449
rfemur -18.5736 0.838031 26.9946
rtibia 28.5185
rfoot -17.4218 -18.5393
rtoes 11.5823
lfemur -26.3146 5.35914 -2.30478
ltibia 69.2863
lfoot 9.41614 9.07244
ltoes 10.9085
1088
root 10.6207 17.0406 5.82305 194.162 237.078 529.004
lowerback -4.4299 3.21667 3.10928
upperback 1.82153 4.08562 0.269832
thorax 4.56585 2.11114 -1.1128
lowerneck -6.46957 1.15009 -1.11011
upperneck 39.9339 2.64826 -4.92232
head 15.0845 -0.0687327 -1.62174
rclavicle 4.40308e-014 2.78299e-015
rhumerus -27.8652 -11.4162 -85.0436
rradius 92.2949
rwrist -1.90045
rhand -46.9609 -11.0341
rfingers 7.12502
rthumb -19.6697 -40.059
lclavicle 4.40308e-014 2.78299e-015
lhumerus -54.7003 -8.37589 90.998
lradius 63.1559
lwrist -3.01153
lhand -4.40533 60.1533
lfingers 7.12502
lthumb 21.3647 448.995
rfemur -18.5599 -0.573033 27.9322
rtibia 29.8587
rfoot -18.6053 -18.0189
rtoes 10.5166
lfemur -29.1758 4.77708 -1.62816
ltibia 72.9786
lfoot 11.4245 7.93858
ltoes 15.7372
1089
root 10.4774 16.9881 5.78734 194.181 236.724 528.597
lowerback -4.05075 3.47068 3.54644
upperback 1.74985 4.41286 0.301995
thorax 4.32398 2.28226 -1.31882
lowerneck -6.51581 1.26419 -0.734444
upperneck 40.0505 2.8853 -5.22975
head 15.1753 0.0530786 -1.79066
rclavicle -4.62174e-014 1.27222e-014
rhumerus -26.8189 -12.9193 -84.2721
rradius 92.2275
rwrist -4.43498
rhand -47.4857 -11.3906
rfingers 7.12502
rthumb -20.1741 -40.3631
lclavicle -4.62174e-014 1.27222e-014
lhumerus -54.5595 -7.59941 90.9566
lradius 62.7072
lwrist -3.58251
lhand -4.65198 60.0661
lfingers 7.12502
lthumb 21.1278 448.935
rfemur -18.6954 -1.97827 28.67
rtibia 31.5029
rfoot -19.8624 -17.4497
rtoes 10.0423
lfemur -31.9394 4.63808 -1.27167
ltibia 76.0773
lfoot 10.031 5.71265
ltoes 11.5655
1090
root 10.334 16.9372 5.75677 193.827 236.443 528.69
lowerback -3.91812 3.74324 3.75983
upperback 1.8365 4.77126 0.227785
thorax 4.38328 2.46902 -1.48673
lowerneck -6.6163 1.32479 -0.531585
upperneck 40.0463 3.03103 -5.39124
head 15.2095 0.134201 -1.87352
rclavicle -5.34731e-014 2.78299e-015
rhumerus -25.6353 -14.4781 -83.3667
rradius 91.8769
rwrist -6.54352
rhand -48.4152 -11.4223
rfingers 7.12502
rthumb -21.0673 -40.2979
lclavicle -5.34731e-014 2.78299e-015
lhumerus -54.1809 -6.73976 90.8009
lradius 62.3371
lwrist -3.82318
lhand -5.00067 60.196
lfingers 7.12502
lthumb 20.7928 449.102
rfemur -18.9395 -3.34434 29.056
rtibia 33.2396
rfoot -20.9512 -17.2986
rtoes 9.40396
lfemur -34.4766 4.97942 -1.44285
ltibia 78.1922
lfoot 8.50091 4.16617
ltoes 16.6979
1091
root 10.1929 16.8913 5.72613 193.178 236.141 529.265
lowerback -3.87395 4.03689 3.71418
upperback 1.94212 5.17379 0.0423541
thorax 4.50532 2.67354 -1.61481
lowerneck -6.71183 1.39917 -0.454692
upperneck 39.952 3.13656 -5.30221
head 15.1865 0.216418 -1.82735
rclavicle -1.4561e-014 7.55382e-015
rhumerus -24.54 -16.2287 -82.3786
rradius 91.3645
rwrist -8.67783
rhand -49.8628 -11.8373
rfingers 7.12502
rthumb -22.4574 -40.5516
lclavicle -1.4561e-014 7.55382e-015
lhumerus -53.8415 -6.09467 90.6111
lradius 62.0704
lwrist -4.21486
lhand -5.47513 60.3557
lfingers 7.12502
lthumb 20.3369 449.311
rfemur -19.2558 -4.53225 29.1501
rtibia 34.8648
rfoot -22.0297 -17.4305
rtoes 8.42657
lfemur -36.8626 5.73408 -2.19953
ltibia 79.3136
lfoot 5.43717 3.8965
ltoes 14.4501
1092
root 10.0523 16.8565 5.69577 192.988 235.802 529.642
lowerback -3.97782 4.42545 3.80396
upperback 1.91022 5.69542 -0.219102
thorax 4.59909 2.94024 -1.87823
lowerneck -6.82173 1.48636 -0.280552
upperneck 39.9082 3.18269 -5.04327
head 15.186 0.309623 -1.73596
rclavicle 3.00165e-014 1.86858e-014
rhumerus -23.8148 -18.3739 -81.3091
rradius 91.0172
rwrist -11.3832
rhand -51.2747 -12.0651
rfingers 7.12502
rthumb -23.8121 -40.6094
lclavicle 3.00165e-014 1.86858e-014
lhumerus -53.6484 -5.70343 90.3224
lradius 61.8928
lwrist -4.85521
lhand -5.88256 60.3164
lfingers 7.12502
lthumb 19.9452 449.313
rfemur -19.7516 -5.30987 29.4292
rtibia 36.282
rfoot -22.9992 -17.4476
rtoes 8.73848
lfemur -39.3748 7.00359 -3.21065
ltibia 79.6576
lfoot 2.94713 5.39524
ltoes 12.7009
1093
root 9.90724 16.8226 5.66859 192.423 235.332 530.464
lowerback -4.01793 4.80449 3.69445
upperback 1.84463 6.22464 -0.608075
thorax 4.62094 3.20611 -2.16743
lowerneck -6.75362 1.55751 0.0880655
upperneck 39.6894 3.22897 -4.98312
head 15.0633 0.413498 -1.75863
rclavicle -5.23798e-014 -7.15625e-015
rhumerus -23.6097 -20.7972 -80.0702
rradius 91.0453
rwrist -14.568
rhand -52.0649 -12.2399
rfingers 7.12502
rthumb -24.5697 -40.6833
lclavicle -5.23798e-014 -7.15625e-015
lhumerus -53.4769 -5.3845 89.9197
lradius 61.8031
lwrist -5.08018
lhand -6.34213 60.5006
lfingers 7.12502
lthumb 19.5034 449.542
rfemur -20.0144 -5.97191 29.4374
rtibia 37.3164
rfoot -23.8834 -17.6912
rtoes 9.03425
lfemur -41.8465 8.40684 -4.83725
ltibia 79.3254
lfoot 1.30021 7.26121
ltoes 13.4245
1094
root 9.76036 16.7908 5.64359 191.736 234.696 531.47
lowerback -4.08788 5.1978 3.47343
upperback 1.80231 6.77947 -1.03931
thorax 4.68323 3.48279 -2.43105
lowerneck -6.80191 1.61158 0.473115
upperneck 39.5499 3.29084 -5.01606
head 15.013 0.512138 -1.82436
rclavicle 1.05356e-014 -9.54166e-015
rhumerus -23.8697 -23.464 -78.5349
rradius 91.3188
rwrist -17.4793
rhand -52.4545 -12.8712
rfingers 7.12502
rthumb -24.9431 -41.2634
lclavicle 1.05356e-014 -9.54166e-015
lhumerus -53.2264 -5.23365 89.5109
lradius 61.7771
lwrist -5.05158
lhand -6.83099 60.7735
lfingers 7.12502
lthumb 19.0334 449.862
rfemur -20.1424 -6.56013 29.3412
rtibia 38.019
rfoot -24.7242 -18.2191
rtoes 8.69914
lfemur -44.3318 9.88001 -6.88109
ltibia 78.4271
lfoot 0.52677 8.84653
ltoes 15.8384
1095
root 9.6116 16.7634 5.62271 191.143 233.904 532.435
lowerback -4.26774 5.46023 3.19038
upperback 1.794 7.1547 -1.34891
thorax 4.80945 3.66688 -2.53961
lowerneck -6.97657 1.85163 0.453553
upperneck 39.59 3.67793 -4.91931
head 15.0892 0.698466 -1.72198
rclavicle 4.64162e-014 -1.66979e-014
rhumerus -24.4203 -25.7318 -76.6665
rradius 91.6065
rwrist -19.8483
rhand -53.0642 -13.9304
rfingers 7.12502
rthumb -25.5272 -42.2402
lclavicle 4.64162e-014 -1.66979e-014
lhumerus -52.992 -4.69128 89.1321
lradius 61.6461
lwrist -5.54979
lhand -7.42979 61.011
lfingers 7.12502
lthumb 18.4574 629.845
rfemur -20.2245 -7.10534 29.2812
rtibia 38.5317
rfoot -25.3759 -18.7529
rtoes 9.30005
lfemur -46.6781 11.3928 -9.19019
ltibia 76.9267
lfoot -0.184178 10.0328
ltoes 16.9294
1096
root 9.45769 16.7417 5.61033 190.738 232.905 533.149
lowerback -4.47758 5.69435 3.02974
upperback 1.78379 7.48264 -1.59354
thorax 4.95486 3.82979 -2.64812
lowerneck -7.00461 2.09876 0.448779
upperneck 39.6247 4.07536 -4.8436
head 15.1292 0.890133 -1.62928
rclavicle 8.40859e-014 1.51076e-014
rhumerus -25.4958 -27.9763 -74.3943
rradius 91.9133
rwrist -22.1724
rhand -53.8162 -14.8059
rfingers 7.12502
rthumb -26.2473 -43.0105
lclavicle 8.40859e-014 1.51076e-014
lhumerus -52.7926 -4.11529 88.7502
lradius 61.4139
lwrist -6.06334
lhand -8.1029 61.3322
lfingers 7.12502
lthumb 17.8098 629.463
rfemur -20.1524 -7.71171 29.3905
rtibia 38.8326
rfoot -25.9463 -19.4012
rtoes 9.52183
lfemur -48.677 12.9045 -11.5822
ltibia 74.9236
lfoot -1.48593 10.2919
ltoes 16.6888
1097
root 9.2985 16.7273 5.604 190.385 231.744 533.703
lowerback -4.69817 5.99008 2.91753
upperback 1.84812 7.89205 -1.85335
thorax 5.20113 4.0364 -2.78145
lowerneck -7.03045 2.29387 0.738067
upperneck 39.6405 4.34612 -4.80318
head 15.1606 1.06974 -1.62129
rclavicle -1.0138e-014 -7.95139e-015
rhumerus -26.9284 -30.6237 -71.8568
rradius 92.0347
rwrist -24.7179
rhand -54.6093 -14.8561
rfingers 7.12502
rthumb -27.0064 -42.9455
lclavicle -1.0138e-014 -7.95139e-015
lhumerus -52.4275 -3.94303 88.3947
lradius 61.2299
lwrist -5.92837
lhand -8.60783 61.5289
lfingers 7.12502
lthumb 17.3239 629.223
rfemur -19.9316 -8.27516 29.6115
rtibia 39.015
rfoot -26.5074 -20.2515
rtoes 8.78359
lfemur -50.2627 14.4132 -14.1457
ltibia 72.5825
lfoot -2.68514 9.71707
ltoes 15.0896
1098
root 9.13477 16.7218 5.60221 190.059 230.412 534.254
lowerback -5.10755 5.96981 2.65088
upperback 2.00351 7.87809 -1.90306
thorax 5.5653 4.02454 -2.63554
lowerneck -6.89955 2.81941 0.561376
upperneck 39.434 5.19989 -4.76793
head 15.06 1.43209 -1.44404
rclavicle -1.83876e-014 2.38542e-015
rhumerus -28.1498 -32.4479 -69.3632
rradius 91.7371
rwrist -27.4807
rhand -55.2811 -14.3172
rfingers 7.12502
rthumb -27.649 -42.3053
lclavicle -1.83876e-014 2.38542e-015
lhumerus -51.9802 -2.92056 88.0783
lradius 60.8888
lwrist -6.00808
lhand -9.10569 61.6834
lfingers 7.12502
lthumb 16.8447 629.027
rfemur -19.7665 -8.85045 29.8545
rtibia 39.2555
rfoot -27.0888 -21.0729
rtoes 8.04455
lfemur -51.5682 15.8893 -17.0456
ltibia 70.0963
lfoot -3.2144 9.13458
ltoes 12.1944
